<svg width="32" height="26" viewBox="0 0 32 26" fill="none" xmlns="http://www.w3.org/2000/svg">
<path d="M31.8954 5.06969C31.8056 4.89581 29.6254 0.8125 23.5 0.8125C19.4121 0.8125 17.1081 2.63088 16 3.8955C14.8919 2.63088 12.5879 0.8125 8.5 0.8125C2.37456 0.8125 0.194438 4.89581 0.104625 5.06969C0.035875 5.20269 0 5.35025 0 5.5V24.25C0 24.6849 0.296125 25.0684 0.719375 25.1682L16.125 23.25L31.2806 25.1682C31.7039 25.0684 32 24.6849 32 24.25V5.5C32 5.35025 31.9641 5.20269 31.8954 5.06969Z" fill="url(#paint0_linear)"/>
<path d="M31.8954 23.8197C31.8056 23.6458 29.6255 19.5625 23.5001 19.5625C19.4116 19.5625 17.1079 21.3812 16.0001 22.6458C14.8922 21.3812 12.5886 19.5625 8.50006 19.5625C2.37462 19.5625 0.194496 23.6458 0.104684 23.8197C-0.0455035 24.1103 -0.0333161 24.4582 0.136871 24.7376C0.306996 25.017 0.610434 25.1875 0.937559 25.1875H16.0001H31.0626C31.3897 25.1875 31.6931 25.017 31.8633 24.7376C32.0334 24.4582 32.0456 24.1103 31.8954 23.8197Z" fill="url(#paint1_linear)"/>
<defs>
<linearGradient id="paint0_linear" x1="16" y1="25.1682" x2="16" y2="0.8125" gradientUnits="userSpaceOnUse">
<stop stop-color="#FFFFD5"/>
<stop offset="1" stop-color="#FFE59A"/>
</linearGradient>
<linearGradient id="paint1_linear" x1="16.0001" y1="25.1875" x2="16.0001" y2="19.5625" gradientUnits="userSpaceOnUse">
<stop stop-color="#FD5900"/>
<stop offset="1" stop-color="#FFDE00"/>
</linearGradient>
</defs>
</svg>
